<?xml version="1.0" encoding="utf-8"?>
<!-- Generator: Adobe Illustrator 19.2.0, SVG Export Plug-In . SVG Version: 6.00 Build 0)  -->
<!DOCTYPE svg PUBLIC "-//W3C//DTD SVG 1.1//EN" "http://www.w3.org/Graphics/SVG/1.1/DTD/svg11.dtd">
<svg version="1.1" xmlns="http://www.w3.org/2000/svg" xmlns:xlink="http://www.w3.org/1999/xlink" x="0px" y="0px"
	 viewBox="0 0 111 23" style="enable-background:new 0 0 111 23;" xml:space="preserve" fill="white">
<desc>Created with Sketch.</desc>
<g id="Slice">
	<g id="Artboard-1" transform="translate(-195.000000, -232.000000)">
		<path id="Combined-Shape" class="st0" fill="white" d="M237.6,245.4c0,2.1-0.3,4.7-2.4,6.9c-2.1,2.2-4.5,2.5-6.7,2.5c-2.3,0-4.7-0.3-6.7-2.5
			c-2.1-2.2-2.4-4.8-2.4-6.9v-11.8c0-0.6,0.5-1.1,1.1-1.1h2.7c0.6,0,1.1,0.5,1.1,1.1v11.7c0,0.9,0.1,2.6,1.1,3.7
			c0.9,1,2.1,1.1,3,1.1s2.1-0.2,3-1.1c1.1-1.1,1.1-2.7,1.1-3.7v-11.7c0-0.6,0.5-1.1,1.1-1.1h2.7c0.6,0,1.1,0.5,1.1,1.1V245.4z
			 M247.8,232.5c2.8,0,4.5,0.9,5.5,1.9c0.9,0.9,1.9,2.5,1.9,4.9c0,1.4-0.3,3.1-1.7,4.5c-0.5,0.4-1,0.9-1.7,1.2
			c-0.6,0.3-0.9,1.1-0.4,1.7l4.4,5.9c0.6,0.8,0,1.8-0.9,1.8h-3.2c-0.4,0-0.7-0.2-0.9-0.5l-3.4-5.1c-0.6-0.9-2.1-0.5-2.1,0.6v3.8
			c0,0.6-0.5,1.1-1.1,1.1h-2.7c-0.6,0-1.1-0.5-1.1-1.1v-19.6c0-0.6,0.5-1.1,1.1-1.1H247.8z M270,236.8c-0.3,0.5-1,0.7-1.6,0.4
			c-1.2-0.8-2.2-0.9-2.7-0.9c-0.7,0-1.5,0.1-2.1,0.8c-0.3,0.3-0.6,0.8-0.6,1.4c0,0.5,0.2,0.9,0.5,1.2c0.5,0.5,1.3,0.7,2.7,1.2
			l1.6,0.6c0.9,0.4,2.1,0.9,2.9,1.7c1.3,1.2,1.6,2.8,1.6,4.1c0,2.3-0.8,4.2-1.9,5.4c-1.9,2-4.7,2.2-6.1,2.2c-1.6,0-2.9-0.2-4.3-0.9
			c-0.8-0.4-1.7-1-2.4-1.7c-0.5-0.4-0.5-1.1-0.2-1.5l1.3-1.7c0.4-0.5,1.1-0.6,1.6-0.2c0.4,0.3,0.8,0.6,1.1,0.8
			c0.8,0.5,1.7,0.8,2.7,0.8c0.6,0,1.6-0.1,2.3-0.8c0.4-0.4,0.8-1,0.8-1.8c0-0.7-0.3-1.2-0.7-1.6c-0.6-0.5-1.9-1-2.5-1.2l-1.8-0.6
			c-1-0.4-2.2-0.8-3-1.7c-1.1-1.2-1.3-2.8-1.3-3.8c0-1.9,0.6-3.6,1.9-4.9c1.5-1.6,3.3-2,5.3-2c1.3,0,3.3,0.2,5.5,1.5
			c0.5,0.3,0.7,1,0.4,1.6L270,236.8z M281,239.1l5-6.2c0.2-0.3,0.5-0.4,0.9-0.4h3.1c1,0,1.5,1.1,0.9,1.9l-6.5,7.7
			c-0.4,0.4-0.4,1,0,1.5l7.3,8.9c0.6,0.7,0.1,1.9-0.9,1.9h-3.5c-0.3,0-0.7-0.2-0.9-0.4l-5.4-6.7c-0.7-0.8-2-0.4-2,0.7v5.3
			c0,0.6-0.5,1.1-1.1,1.1h-2.7c-0.6,0-1.1-0.5-1.1-1.1v-19.6c0-0.6,0.5-1.1,1.1-1.1h2.7c0.6,0,1.1,0.5,1.1,1.1v4.8
			C279,239.5,280.3,240,281,239.1z M304.9,232.5h-3.1c-0.4,0-0.7,0.2-1,0.5l-3.1,4.8c-0.4,0.7-1.5,0.7-1.9,0l-1.9-3
			c-0.2-0.3-0.5-0.3-0.7-0.1l-2.7,2.9c-0.2,0.3-0.2,0.6,0.1,1l3.5,5.2c0.1,0.2,0.2,0.4,0.2,0.6v8.7c0,0.6,0.5,1.1,1.1,1.1h2.7
			c0.6,0,1.1-0.5,1.1-1.1v-8.7c0-0.2,0.1-0.5,0.2-0.6l6.4-9.6C306.3,233.5,305.8,232.5,304.9,232.5z M206.2,232.3
			c-6.2,0-11.2,5.1-11.2,11.4s5,11.4,11.2,11.4c6.2,0,11.2-5.1,11.2-11.4S212.4,232.3,206.2,232.3z M206.2,237.4
			c3.4,0,6.2,2.8,6.2,6.2c0,3.4-2.8,6.2-6.2,6.2s-6.2-2.8-6.2-6.2C200.1,240.2,202.8,237.4,206.2,237.4z M245.3,241.3
			c0,0.6,0.5,1.1,1.1,1.1c0.9,0,2.1-0.1,3-0.9c0.4-0.4,0.8-1,0.8-2.1c0-1.2-0.6-1.9-1-2.2c-0.8-0.6-2.1-0.7-2.8-0.7h0
			c-0.6,0-1.1,0.5-1.1,1.1V241.3z"/>
	</g>
</g>
</svg>
