<?xml version="1.0" encoding="UTF-8"?>
<svg width="300px" height="171px" viewBox="0 0 300 171" version="1.1" xmlns="http://www.w3.org/2000/svg" xmlns:xlink="http://www.w3.org/1999/xlink">
    <!-- Generator: Sketch 43.2 (39069) - http://www.bohemiancoding.com/sketch -->
    <title>APITable Landing Page Copy 10</title>
    <desc>Created with Sketch.</desc>
    <defs></defs>
    <g id="Page-1" stroke="none" stroke-width="1" fill="none" fill-rule="evenodd">
        <g id="Page-1-Copy-2" transform="translate(50.000000, 20.000000)">
            <path d="M147.875,20.1846 C173.454,45.7636 173.454,87.2366 147.875,112.8156 C122.296,138.3946 80.823,138.3946 55.244,112.8156" id="Fill-1" fill="#00B14D" opacity="0.2"></path>
            <path d="M147.9551,111.7285 C136.0591,123.9255 119.4431,131.4995 101.0591,131.4995 C82.5371,131.4995 65.8101,123.8115 53.8961,111.4525" id="Stroke-3" stroke="#363636" stroke-width="3"></path>
            <path d="M51.9248,22.6855 C63.9278,9.0815 81.4908,0.4995 101.0598,0.4995 C137.2348,0.4995 166.5598,29.8255 166.5598,65.9995 C166.5598,79.4015 162.5348,91.8625 155.6288,102.2405" id="Stroke-5" stroke="#363636" stroke-width="3"></path>
            <polygon id="Fill-7" fill="#FFFFFF" points="13.5596 95.5 114.4346 91.095 166.5596 105.5 167.5596 111.5 67.5596 114.5 13.5596 100.5"></polygon>
            <polygon id="Fill-9" fill="#00B14D" opacity="0.2" points="165.0596 106 68.0596 110 68.0596 115 165.0596 110"></polygon>
            <polygon id="Fill-11" fill="#FFFFFF" points="112.8496 91.0947 13.9686 95.9487 0.4996 25.5237 99.3806 20.6707"></polygon>
            <polygon id="Stroke-13" stroke="#363636" stroke-width="3" stroke-linecap="round" stroke-linejoin="round" points="112.8496 91.0947 13.9686 95.9487 0.4996 25.5237 99.3806 20.6707"></polygon>
            <polygon id="Fill-15" fill="#00B14D" points="105.5606 84.9453 19.7896 89.1543 8.7886 31.6253 94.5576 27.4153"></polygon>
            <polygon id="Stroke-17" stroke="#363636" stroke-width="3" stroke-linecap="round" stroke-linejoin="round" points="105.5606 84.9453 19.7896 89.1543 8.7886 31.6253 94.5576 27.4153"></polygon>
            <polygon id="Fill-19" fill="#FFFFFF" points="16.6338 37.1279 17.5448 40.5959 83.2748 37.3699 82.2798 33.8529"></polygon>
            <polygon id="Fill-21" fill="#FFFFFF" points="53.9004 45.9092 19.5454 47.5962 18.6334 44.1282 52.7134 42.4282"></polygon>
            <polygon id="Fill-23" fill="#FFFFFF" points="23.6338 68.1279 24.5448 71.5959 90.2748 68.3699 89.2798 64.8529"></polygon>
            <polygon id="Fill-25" fill="#FFFFFF" points="55.9004 52.9092 21.5454 54.5962 20.6334 51.1282 54.7134 49.4282"></polygon>
            <path d="M166.5596,105.5 L166.5596,108.165 C166.5596,109.474 165.5346,110.552 164.2276,110.616 L67.8106,115.438 C66.9816,115.479 66.1516,115.392 65.3496,115.178 L15.7906,101.985 C14.7166,101.699 13.9686,100.726 13.9686,99.613 L13.9686,95.948 L67.7386,110.329 L166.6196,105.477 L112.8496,91.095" id="Stroke-27" stroke="#363636" stroke-width="3" stroke-linecap="round" stroke-linejoin="round"></path>
            <path d="M138.1651,76.875 L157.0441,88.317 L149.3711,105.716 C149.3711,105.716 145.9801,109.5 139.2701,105 C132.5601,100.5 129.9151,97.906 129.9151,97.906 C129.9151,97.906 128.9711,95.322 131.7651,88.411 C134.5601,81.5 138.1651,76.875 138.1651,76.875" id="Fill-29" fill="#FFFFFF"></path>
            <path d="M166.1651,93.875 L185.0441,105.317 L177.3711,122.716 C177.3711,122.716 176.0601,128 167.2701,122 C160.5971,117.444 157.9151,114.906 157.9151,114.906 C157.9151,114.906 156.9711,112.322 159.7651,105.411 C162.5601,98.5 166.1651,93.875 166.1651,93.875" id="Fill-31" fill="#FFFFFF"></path>
            <path d="M180.5596,103.5 L162.5576,119.772 L170.5596,124.5 C170.5596,124.5 175.5596,126.5 177.5596,123.5 C179.5596,120.5 184.5596,106.5 184.5596,106.5 L180.5596,103.5 Z" id="Fill-33" fill="#00B14D" opacity="0.2"></path>
            <path d="M152.5596,85.5 L134.5576,101.772 L142.5596,106.5 C142.5596,106.5 147.5596,108.5 149.5596,105.5 C151.5596,102.5 156.5596,88.5 156.5596,88.5 L152.5596,85.5 Z" id="Fill-35" fill="#00B14D" opacity="0.2"></path>
            <polygon id="Stroke-37" stroke="#363636" stroke-width="3" stroke-linecap="round" stroke-linejoin="round" points="41.9688 98.9482 62.7388 103.3292 127.5598 99.5002 110.8498 95.0942"></polygon>
            <polygon id="Fill-39" fill="#FFFFFF" points="162.0596 100 154.0596 96 156.0596 92 164.0596 97"></polygon>
            <path d="M142.3906,106.6924 L132.0246,100.2034 C129.5376,98.6474 128.5816,95.4964 129.7846,92.8214 L136.6416,77.5564 C137.1566,76.4124 138.5626,75.9854 139.6246,76.6504 L156.1226,86.9774 C156.9986,87.5254 157.3356,88.6354 156.9116,89.5784 L150.3026,104.2914 C148.9396,107.3264 145.2096,108.4574 142.3906,106.6924 Z" id="Stroke-41" stroke="#363636" stroke-width="3" stroke-linecap="round" stroke-linejoin="round"></path>
            <path d="M148.6358,97.1621 L147.4468,99.8111 C146.5998,101.6951 144.2848,102.3971 142.5348,101.3021" id="Stroke-43" stroke="#363636" stroke-width="3" stroke-linecap="round" stroke-linejoin="round"></path>
            <path d="M156.6748,92.1719 L163.2298,96.2759" id="Stroke-45" stroke="#363636" stroke-width="3" stroke-linecap="round" stroke-linejoin="round"></path>
            <path d="M155.0195,95.8545 L161.5755,99.9585" id="Stroke-47" stroke="#363636" stroke-width="3" stroke-linecap="round" stroke-linejoin="round"></path>
            <path d="M170.8584,124.9678 L160.3234,118.3728 C157.3664,116.5228 156.2284,112.7748 157.6584,109.5928 L164.4424,94.4918 C164.7854,93.7288 165.7234,93.4438 166.4334,93.8878 L184.1084,104.9508 C184.6924,105.3178 184.9184,106.0578 184.6344,106.6878 L177.3004,123.0128 C176.1904,125.4838 173.1544,126.4048 170.8584,124.9678 Z" id="Stroke-49" stroke="#363636" stroke-width="3" stroke-linecap="round" stroke-linejoin="round"></path>
            <path d="M176.1944,114.6338 L174.6214,118.1358 C173.9324,119.6688 172.0484,120.2408 170.6234,119.3488" id="Stroke-51" stroke="#363636" stroke-width="3" stroke-linecap="round" stroke-linejoin="round"></path>
            <path d="M183.4942,109.2256 L211.7622,108.6946 C215.1552,108.6306 218.2232,110.7046 219.4292,113.8766 L222.2872,121.3986" id="Stroke-53" stroke="#363636" stroke-width="3" stroke-linecap="round" stroke-linejoin="round"></path>
            <path d="M144.3389,79.6016 L163.9169,79.2336 C167.3109,79.1696 170.3789,81.2436 171.5839,84.4156 L174.4429,91.9366" id="Stroke-55" stroke="#363636" stroke-width="3" stroke-linecap="round" stroke-linejoin="round"></path>
            <path d="M127.5596,28.5 L127.5596,32.5" id="Stroke-57" stroke="#363636" stroke-width="3" stroke-linecap="round"></path>
            <path d="M127.5596,43.5 L127.5596,47.5" id="Stroke-59" stroke="#363636" stroke-width="3" stroke-linecap="round"></path>
            <path d="M137.0596,38 L133.0596,38" id="Stroke-61" stroke="#363636" stroke-width="3" stroke-linecap="round"></path>
            <path d="M122.0596,38 L118.0596,38" id="Stroke-63" stroke="#363636" stroke-width="3" stroke-linecap="round"></path>
            <path d="M142.3096,48.5 L142.3096,50.711" id="Stroke-65" stroke="#363636" stroke-width="3" stroke-linecap="round"></path>
            <path d="M142.3096,56.7891 L142.3096,59.0001" id="Stroke-67" stroke="#363636" stroke-width="3" stroke-linecap="round"></path>
            <path d="M147.5596,53.75 L145.3486,53.75" id="Stroke-69" stroke="#363636" stroke-width="3" stroke-linecap="round"></path>
            <path d="M139.2705,53.75 L137.0595,53.75" id="Stroke-71" stroke="#363636" stroke-width="3" stroke-linecap="round"></path>
        </g>
    </g>
</svg>