<?xml version="1.0" encoding="UTF-8"?>
<svg width="220px" height="150px" viewBox="0 0 220 150" version="1.1" xmlns="http://www.w3.org/2000/svg" xmlns:xlink="http://www.w3.org/1999/xlink">
    <!-- Generator: Sketch 43.2 (39069) - http://www.bohemiancoding.com/sketch -->
    <title>APITable Landing Page Copy 7</title>
    <desc>Created with Sketch.</desc>
    <defs></defs>
    <g id="Page-1" stroke="none" stroke-width="1" fill="none" fill-rule="evenodd">
        <g id="Page-1-Copy-3" transform="translate(46.000000, 31.000000)">
            <polygon id="Fill-1" fill-opacity="0.2" fill="#00B14D" points="50.8 70.206 128.5 70.206 128.5 7 50.8 7"></polygon>
            <polygon id="Fill-1" fill="#FFFFFF" points="44.8 63.206 122.5 63.206 122.5 0 44.8 0"></polygon>
            <path d="M44.8,63.206 L122.5,63.206 L122.5,0 L44.8,0 L44.8,63.206 Z M85.151,15.052 L119.5,15.052 L119.5,3 L85.151,3 L85.151,15.052 Z M47.8,15.052 L82.15,15.052 L82.15,3 L47.8,3 L47.8,15.052 Z M85.151,30.102 L119.5,30.102 L119.5,18.052 L85.151,18.052 L85.151,30.102 Z M47.8,30.102 L82.15,30.102 L82.15,18.052 L47.8,18.052 L47.8,30.102 Z M85.151,45.155 L119.5,45.155 L119.5,33.103 L85.151,33.103 L85.151,45.155 Z M47.8,45.155 L82.15,45.155 L82.15,33.103 L47.8,33.103 L47.8,45.155 Z M85.151,60.206 L119.5,60.206 L119.5,48.154 L85.151,48.154 L85.151,60.206 Z M47.8,60.206 L82.15,60.206 L82.15,48.154 L47.8,48.154 L47.8,60.206 Z" id="Fill-1" fill="#363636"></path>
            <g id="Group-8" transform="translate(0.000000, 30.000000)">
                <path d="M57.5,29.5 C57.5,44.964 44.964,57.5 29.5,57.5 C14.036,57.5 1.5,44.964 1.5,29.5 C1.5,14.036 14.036,1.5 29.5,1.5 C44.964,1.5 57.5,14.036 57.5,29.5" id="Fill-2" fill="#00B14D"></path>
                <path d="M29.5,3 C14.888,3 3,14.888 3,29.5 C3,44.112 14.888,56 29.5,56 C44.112,56 56,44.112 56,29.5 C56,14.888 44.112,3 29.5,3 M29.5,59 C13.233,59 0,45.767 0,29.5 C0,13.233 13.233,0 29.5,0 C45.767,0 59,13.233 59,29.5 C59,45.767 45.767,59 29.5,59" id="Fill-4" fill="#00B14D"></path>
                <path d="M19.0996,36.8193 L23.1376,40.8563 L18.1816,41.7743 L19.0996,36.8193 Z M21.0726,34.5483 L34.9126,20.7093 L39.2476,25.0443 L25.4076,38.8833 L21.0726,34.5483 Z M41.4446,15.7283 L44.2286,18.5123 C44.4356,18.7193 44.5496,18.9953 44.5496,19.2883 C44.5496,19.5813 44.4356,19.8563 44.2286,20.0633 L43.4906,20.8013 L39.1546,16.4663 L39.8926,15.7283 C40.3076,15.3153 41.0286,15.3143 41.4446,15.7283 L41.4446,15.7283 Z M46.3496,16.3913 L43.5656,13.6073 C41.9696,12.0103 39.3706,12.0093 37.7716,13.6073 L16.3876,34.9913 L14.4376,45.5183 L24.9646,43.5693 L46.3496,22.1843 C47.9476,20.5883 47.9476,17.9883 46.3496,16.3913 L46.3496,16.3913 Z" id="Fill-6" fill="#FFFFFF"></path>
            </g>
        </g>
    </g>
</svg>