<?xml version="1.0" encoding="UTF-8"?>
<svg width="220px" height="150px" viewBox="0 0 220 150" version="1.1" xmlns="http://www.w3.org/2000/svg" xmlns:xlink="http://www.w3.org/1999/xlink">
    <!-- Generator: Sketch 43.2 (39069) - http://www.bohemiancoding.com/sketch -->
    <title>APITable Landing Page Copy 5</title>
    <desc>Created with Sketch.</desc>
    <defs></defs>
    <g id="Page-1" stroke="none" stroke-width="1" fill="none" fill-rule="evenodd">
        <g id="Page-1-Copy-3" transform="translate(48.000000, 24.000000)">
            <path d="M15.1835937,58.2705078 C5.83959375,58.2705078 3.0003,41.2774 3.0003,50.6204 C3.0003,59.9644 10.6023,67.5674 19.9463,67.5674 L77.7433,67.5674 C85.0523,67.5674 91.0003,61.6194 91.0003,54.3104 C80.3806152,60.5783691 82.4779756,57.5790396 67.9641113,58.6831055 C46.1129001,60.3453214 15.1835937,58.2705078 15.1835937,58.2705078 Z" id="Path" fill-opacity="0.2" fill="#00B14D"></path>
            <path d="M33.2236,42.2701 C31.9236,38.0901 31.1936,35.7271 31.0296,35.1781 C30.8666,34.6311 30.7486,34.1981 30.6786,33.8791 C30.3866,35.0101 29.5516,37.8071 28.1736,42.2701 L33.2236,42.2701 Z M35.6096,50.3291 L34.2036,45.7151 L27.1396,45.7151 L25.7346,50.3291 L21.3076,50.3291 L28.1466,30.8711 L33.1696,30.8711 L40.0356,50.3291 L35.6096,50.3291 Z" id="Fill-1" fill="#363636"></path>
            <path d="M46.584,40.069 L47.936,40.069 C49.199,40.069 50.145,39.82 50.772,39.321 C51.399,38.821 51.713,38.094 51.713,37.14 C51.713,36.177 51.45,35.465 50.925,35.007 C50.398,34.548 49.574,34.317 48.452,34.317 L46.584,34.317 L46.584,40.069 Z M55.861,36.995 C55.861,39.08 55.21,40.674 53.907,41.78 C52.604,42.883 50.75,43.436 48.347,43.436 L46.584,43.436 L46.584,50.329 L42.475,50.329 L42.475,30.95 L48.665,30.95 C51.015,30.95 52.802,31.456 54.026,32.467 C55.25,33.48 55.861,34.989 55.861,36.995 L55.861,36.995 Z" id="Fill-3" fill="#363636"></path>
            <polygon id="Fill-5" fill="#363636" points="59.52 50.329 63.629 50.329 63.629 30.95 59.52 30.95"></polygon>
            <path d="M19.9463,23.6754 C10.6023,23.6754 3.0003,31.2774 3.0003,40.6204 C3.0003,49.9644 10.6023,57.5674 19.9463,57.5674 L77.7433,57.5674 C85.0523,57.5674 91.0003,51.6194 91.0003,44.3104 C91.0003,37.0004 85.0523,31.0534 77.7433,31.0534 C77.0443,31.0534 76.3083,31.1204 75.4933,31.2594 L73.6843,31.5674 L73.7423,29.7344 C73.7463,29.5944 73.7563,29.4554 73.7653,29.3174 C73.7743,29.1924 73.7843,29.0674 73.7843,28.9394 C73.7843,15.1874 62.5963,3.9994 48.8443,3.9994 C37.4113,3.9994 27.4773,11.7504 24.6873,22.8494 L24.3453,24.2084 L22.9673,23.9604 C21.9023,23.7684 20.9143,23.6754 19.9463,23.6754 M77.7433,60.5674 L19.9463,60.5674 C8.9483,60.5674 0.0003,51.6184 0.0003,40.6204 C0.0003,29.6224 8.9483,20.6754 19.9463,20.6754 C20.6673,20.6754 21.3933,20.7184 22.1413,20.8054 C25.6973,9.0764 36.4893,0.9994 48.8443,0.9994 C63.9663,0.9994 76.3193,13.0724 76.7713,28.0864 C77.1013,28.0644 77.4243,28.0534 77.7433,28.0534 C86.7073,28.0534 94.0003,35.3464 94.0003,44.3104 C94.0003,53.2744 86.7073,60.5674 77.7433,60.5674" id="Fill-7" fill="#363636"></path>
            <path d="M123,71.567 C123,87.031 110.464,99.567 95,99.567 C79.536,99.567 67,87.031 67,71.567 C67,56.103 79.536,43.567 95,43.567 C110.464,43.567 123,56.103 123,71.567" id="Fill-8" fill="#00B14D"></path>
            <path d="M95,45.067 C80.388,45.067 68.5,56.955 68.5,71.567 C68.5,86.179 80.388,98.067 95,98.067 C109.612,98.067 121.5,86.179 121.5,71.567 C121.5,56.955 109.612,45.067 95,45.067 M95,101.067 C78.733,101.067 65.5,87.834 65.5,71.567 C65.5,55.3 78.733,42.067 95,42.067 C111.267,42.067 124.5,55.3 124.5,71.567 C124.5,87.834 111.267,101.067 95,101.067" id="Fill-9" fill="#00B14D"></path>
            <polygon id="Fill-10" fill="#FFFFFF" points="90.7646 85.9234 80.8396 75.9984 82.9606 73.8774 90.7646 81.6814 109.0446 63.4014 111.1656 65.5224"></polygon>
        </g>
    </g>
</svg>