<?xml version="1.0" encoding="UTF-8"?>
<svg width="220px" height="150px" viewBox="0 0 220 150" version="1.1" xmlns="http://www.w3.org/2000/svg" xmlns:xlink="http://www.w3.org/1999/xlink">
    <!-- Generator: Sketch 43.2 (39069) - http://www.bohemiancoding.com/sketch -->
    <title>APITable Landing Page Copy 4</title>
    <desc>Created with Sketch.</desc>
    <defs>
        <polygon id="path-1" points="0 111.785 120.885 111.785 120.885 0 0 0"></polygon>
    </defs>
    <g id="Page-1" stroke="none" stroke-width="1" fill="none" fill-rule="evenodd">
        <g id="Page-1-Copy-2" transform="translate(50.000000, 19.000000)">
            <ellipse id="Oval" fill-opacity="0.2" fill="#00B14D" cx="53" cy="101" rx="36" ry="10"></ellipse>
            <path d="M57.5,29.4998 C57.5,44.9638 44.964,57.4998 29.5,57.4998 C14.035,57.4998 1.5,44.9638 1.5,29.4998 C1.5,14.0358 14.035,1.4998 29.5,1.4998 C44.964,1.4998 57.5,14.0358 57.5,29.4998 Z" id="Fill-1" fill="#00B14D"></path>
            <path d="M29.5,2.9998 C14.888,2.9998 3,14.8878 3,29.4998 C3,44.1118 14.888,55.9998 29.5,55.9998 C44.112,55.9998 56,44.1118 56,29.4998 C56,14.8878 44.112,2.9998 29.5,2.9998 M29.5,58.9998 C13.233,58.9998 0,45.7668 0,29.4998 C0,13.2338 13.233,-0.0002 29.5,-0.0002 C45.767,-0.0002 59,13.2338 59,29.4998 C59,45.7668 45.767,58.9998 29.5,58.9998" id="Fill-3" fill="#00B14E"></path>
            <path d="M31,39.7508 L28,39.7508 L28,35.7888 C28,33.2318 30.133,31.8028 32.195,30.4198 C34.677,28.7548 37.243,27.0338 37.243,23.2438 C37.243,18.9738 33.77,15.4998 29.5,15.4998 C25.229,15.4998 21.756,18.9738 21.756,23.2438 L18.756,23.2438 C18.756,17.3188 23.575,12.4998 29.5,12.4998 C35.424,12.4998 40.243,17.3188 40.243,23.2438 C40.243,28.6348 36.557,31.1058 33.865,32.9108 C32.083,34.1058 31,34.8968 31,35.7888 L31,39.7508 Z" id="Fill-6" fill="#FFFFFF"></path>
            <mask id="mask-2" fill="white">
                <use xlink:href="#path-1"></use>
            </mask>
            <g id="Clip-9"></g>
            <polygon id="Fill-8" fill="#FFFFFF" mask="url(#mask-2)" points="28 48 31 48 31 43.506 28 43.506"></polygon>
            <path d="M93.3936,46.16 C93.3936,51.495 82.1876,55.82 68.3656,55.82 C54.5416,55.82 43.3356,51.495 43.3356,46.16 C43.3356,40.825 54.5416,36.5 68.3656,36.5 C82.1876,36.5 93.3936,40.825 93.3936,46.16" id="Fill-10" fill="#FFFFFF" mask="url(#mask-2)"></path>
            <path d="M68.3652,37.9998 C54.4992,37.9998 44.8362,42.3008 44.8362,46.1598 C44.8362,50.0198 54.4992,54.3198 68.3652,54.3198 C82.2302,54.3198 91.8932,50.0198 91.8932,46.1598 C91.8932,42.3008 82.2302,37.9998 68.3652,37.9998 M68.3652,57.3198 C51.1342,57.3198 41.8362,51.5698 41.8362,46.1598 C41.8362,40.7498 51.1342,34.9998 68.3652,34.9998 C85.5952,34.9998 94.8932,40.7498 94.8932,46.1598 C94.8932,51.5698 85.5952,57.3198 68.3652,57.3198" id="Fill-11" fill="#363636" mask="url(#mask-2)"></path>
            <path d="M43.3359,46.16 L43.3359,95.34 C43.3359,100.675 54.5419,105 68.3649,105 C82.1879,105 93.3939,100.675 93.3939,95.34 L93.3939,46.16" id="Fill-12" fill="#FFFFFF" mask="url(#mask-2)"></path>
            <path d="M68.3652,106.4998 C51.1342,106.4998 41.8362,100.7498 41.8362,95.3398 L41.8362,46.1598 L44.8362,46.1598 L44.8362,95.3398 C44.8362,99.1988 54.4992,103.4998 68.3652,103.4998 C82.2302,103.4998 91.8932,99.1988 91.8932,95.3398 L91.8932,46.1598 L94.8932,46.1598 L94.8932,95.3398 C94.8932,100.7498 85.5952,106.4998 68.3652,106.4998" id="Fill-13" fill="#363636" mask="url(#mask-2)"></path>
            <path d="M68.3652,57.3202 C51.1342,57.3202 41.8362,51.5702 41.8362,46.1602 L44.8362,46.1602 C44.8362,50.0192 54.4992,54.3202 68.3652,54.3202 C82.2302,54.3202 91.8932,50.0192 91.8932,46.1602 L94.8932,46.1602 C94.8932,51.5702 85.5952,57.3202 68.3652,57.3202" id="Fill-14" fill="#363636" mask="url(#mask-2)"></path>
            <path d="M68.3652,69.6151 C51.1342,69.6151 41.8362,63.8651 41.8362,58.4551 L44.8362,58.4551 C44.8362,62.3141 54.4992,66.6151 68.3652,66.6151 C82.2302,66.6151 91.8932,62.3141 91.8932,58.4551 L94.8932,58.4551 C94.8932,63.8651 85.5952,69.6151 68.3652,69.6151" id="Fill-15" fill="#363636" mask="url(#mask-2)"></path>
            <path d="M68.3652,81.91 C51.1342,81.91 41.8362,76.16 41.8362,70.75 L44.8362,70.75 C44.8362,74.609 54.4992,78.91 68.3652,78.91 C82.2302,78.91 91.8932,74.609 91.8932,70.75 L94.8932,70.75 C94.8932,76.16 85.5952,81.91 68.3652,81.91" id="Fill-16" fill="#363636" mask="url(#mask-2)"></path>
            <path d="M68.3652,94.2049 C51.1342,94.2049 41.8362,88.4549 41.8362,83.0449 L44.8362,83.0449 C44.8362,86.9039 54.4992,91.2049 68.3652,91.2049 C82.2302,91.2049 91.8932,86.9039 91.8932,83.0449 L94.8932,83.0449 C94.8932,88.4549 85.5952,94.2049 68.3652,94.2049" id="Fill-17" fill="#363636" mask="url(#mask-2)"></path>
            <path d="M101.4434,98.3163 C98.1524,98.3163 95.4854,95.6493 95.4854,92.3583 C95.4854,89.0673 98.1524,86.3993 101.4434,86.3993 C104.7344,86.3993 107.4024,89.0673 107.4024,92.3583 C107.4024,95.6493 104.7344,98.3163 101.4434,98.3163 M116.0084,92.3583 C116.0084,91.0423 115.8184,89.7733 115.4914,88.5603 L118.8364,86.6283 L115.1014,80.1603 L111.7664,82.0863 C109.9744,80.2843 107.7094,78.9643 105.1784,78.2943 L105.1784,74.4313 L97.7094,74.4313 L97.7094,78.2943 C95.1784,78.9643 92.9124,80.2843 91.1204,82.0863 L87.7864,80.1603 L84.0504,86.6283 L87.3954,88.5603 C87.0684,89.7733 86.8784,91.0423 86.8784,92.3583 C86.8784,93.6743 87.0684,94.9433 87.3954,96.1563 L84.0504,98.0873 L87.7864,104.5553 L91.1204,102.6303 C92.9124,104.4313 95.1784,105.7523 97.7094,106.4213 L97.7094,110.2853 L105.1784,110.2853 L105.1784,106.4213 C107.7094,105.7523 109.9744,104.4313 111.7664,102.6303 L115.1014,104.5553 L118.8364,98.0873 L115.4914,96.1563 C115.8184,94.9433 116.0084,93.6743 116.0084,92.3583" id="Fill-18" fill="#FFFFFF" mask="url(#mask-2)"></path>
            <path d="M101.4434,87.8993 C98.9854,87.8993 96.9854,89.8993 96.9854,92.3583 C96.9854,94.8163 98.9854,96.8163 101.4434,96.8163 C103.9024,96.8163 105.9024,94.8163 105.9024,92.3583 C105.9024,89.8993 103.9024,87.8993 101.4434,87.8993 L101.4434,87.8993 Z M101.4434,99.8163 C97.3314,99.8163 93.9854,96.4703 93.9854,92.3583 C93.9854,88.2453 97.3314,84.8993 101.4434,84.8993 C105.5564,84.8993 108.9024,88.2453 108.9024,92.3583 C108.9024,96.4703 105.5564,99.8163 101.4434,99.8163 L101.4434,99.8163 Z M99.2094,108.7853 L103.6784,108.7853 L103.6784,105.2673 L104.7954,104.9713 C107.0384,104.3783 109.0824,103.2023 110.7034,101.5733 L111.5174,100.7543 L114.5524,102.5063 L116.7874,98.6353 L113.7434,96.8783 L114.0434,95.7653 C114.3524,94.6203 114.5084,93.4733 114.5084,92.3583 C114.5084,91.2433 114.3524,90.0963 114.0434,88.9513 L113.7434,87.8373 L116.7874,86.0803 L114.5524,82.2093 L111.5164,83.9613 L110.7034,83.1433 C109.0834,81.5143 107.0404,80.3383 104.7944,79.7443 L103.6784,79.4483 L103.6784,75.9313 L99.2094,75.9313 L99.2094,79.4483 L98.0934,79.7443 C95.8464,80.3393 93.8034,81.5153 92.1834,83.1433 L91.3694,83.9613 L88.3354,82.2093 L86.0994,86.0803 L89.1434,87.8373 L88.8434,88.9513 C88.5344,90.0963 88.3784,91.2433 88.3784,92.3583 C88.3784,93.4733 88.5344,94.6203 88.8434,95.7653 L89.1434,96.8783 L86.0994,98.6353 L88.3354,102.5063 L91.3694,100.7543 L92.1834,101.5733 C93.8044,103.2023 95.8484,104.3783 98.0924,104.9713 L99.2094,105.2673 L99.2094,108.7853 Z M106.6784,111.7853 L96.2094,111.7853 L96.2094,107.5333 C94.2584,106.8633 92.4584,105.8273 90.9094,104.4843 L87.2374,106.6043 L82.0024,97.5383 L85.6824,95.4133 C85.4804,94.3883 85.3784,93.3653 85.3784,92.3583 C85.3784,91.3513 85.4804,90.3283 85.6824,89.3033 L82.0024,87.1773 L87.2374,78.1113 L90.9094,80.2313 C92.4574,78.8893 94.2574,77.8533 96.2094,77.1833 L96.2094,72.9313 L106.6784,72.9313 L106.6784,77.1833 C108.6294,77.8533 110.4294,78.8903 111.9774,80.2323 L115.6504,78.1113 L120.8844,87.1773 L117.2044,89.3033 C117.4064,90.3283 117.5084,91.3513 117.5084,92.3583 C117.5084,93.3653 117.4064,94.3883 117.2044,95.4133 L120.8844,97.5383 L115.6504,106.6043 L111.9774,104.4843 C110.4284,105.8273 108.6284,106.8633 106.6784,107.5333 L106.6784,111.7853 Z" id="Fill-19" fill="#363636" mask="url(#mask-2)"></path>
        </g>
    </g>
</svg>