<?xml version="1.0" encoding="UTF-8"?>
<svg width="220px" height="150px" viewBox="0 0 220 150" version="1.1" xmlns="http://www.w3.org/2000/svg" xmlns:xlink="http://www.w3.org/1999/xlink">
    <!-- Generator: Sketch 43.2 (39069) - http://www.bohemiancoding.com/sketch -->
    <title>APITable Landing Page Copy 6</title>
    <desc>Created with Sketch.</desc>
    <defs></defs>
    <g id="Page-1" stroke="none" stroke-width="1" fill="none" fill-rule="evenodd">
        <g id="Page-1-Copy-2" transform="translate(53.000000, 22.000000)">
            <polygon id="Fill-1" fill="#FFFFFF" points="1.5 54.6202 17.7 39.5002 68.46 39.5002 68.46 90.2602 52.26 105.3802 1.5 105.3802"></polygon>
            <polygon id="Fill-1" fill-opacity="0.2" fill="#00B14D" points="52.26 54.6202 68.46 39.5002 68.46 90.2602 100.90332 90.2602 86.3183594 105.3802 52.26 105.3802"></polygon>
            <path d="M17.109,38.0003 L0,53.9693 L0,106.8803 L52.851,106.8803 L69.96,90.9113 L69.96,38.0003 L17.109,38.0003 Z M3,55.2713 L18.291,41.0003 L66.96,41.0003 L66.96,89.6083 L51.669,103.8803 L3,103.8803 L3,55.2713 Z" id="Fill-2" fill="#363636"></path>
            <g id="Group-18" transform="translate(2.000000, 0.880000)">
                <path d="M16.2188,83.1426 C16.2188,84.4876 15.7348,85.5466 14.7668,86.3216 C13.7988,87.0946 12.4528,87.4826 10.7278,87.4826 C9.1388,87.4826 7.7328,87.1836 6.5108,86.5856 L6.5108,83.6526 C7.5158,84.1006 8.3658,84.4156 9.0628,84.5996 C9.7578,84.7826 10.3948,84.8736 10.9728,84.8736 C11.6648,84.8736 12.1968,84.7426 12.5668,84.4776 C12.9368,84.2116 13.1218,83.8196 13.1218,83.2956 C13.1218,83.0036 13.0398,82.7446 12.8768,82.5166 C12.7138,82.2886 12.4748,82.0696 12.1588,81.8596 C11.8438,81.6496 11.1998,81.3126 10.2288,80.8506 C9.3188,80.4226 8.6358,80.0126 8.1808,79.6186 C7.7258,79.2236 7.3628,78.7656 7.0908,78.2436 C6.8198,77.7196 6.6838,77.1086 6.6838,76.4096 C6.6838,75.0916 7.1298,74.0556 8.0238,73.3016 C8.9158,72.5476 10.1508,72.1706 11.7268,72.1706 C12.4998,72.1706 13.2398,72.2626 13.9418,72.4466 C14.6448,72.6296 15.3798,72.8876 16.1478,73.2206 L15.1288,75.6756 C14.3338,75.3496 13.6768,75.1216 13.1568,74.9936 C12.6378,74.8646 12.1268,74.7996 11.6238,74.7996 C11.0268,74.7996 10.5688,74.9386 10.2488,75.2176 C9.9298,75.4956 9.7708,75.8586 9.7708,76.3076 C9.7708,76.5856 9.8348,76.8296 9.9638,77.0366 C10.0928,77.2436 10.2978,77.4426 10.5798,77.6366 C10.8628,77.8306 11.5298,78.1786 12.5818,78.6806 C13.9738,79.3466 14.9288,80.0136 15.4448,80.6826 C15.9608,81.3516 16.2188,82.1716 16.2188,83.1426 Z" id="Fill-3" fill="#363636"></path>
                <path d="M27.9951,79.7705 C27.9951,76.5725 26.5821,74.9725 23.7571,74.9725 L22.0761,74.9725 L22.0761,84.6705 L23.4321,84.6705 C26.4741,84.6705 27.9951,83.0385 27.9951,79.7705 M31.2751,79.6895 C31.2751,82.1415 30.5771,84.0185 29.1821,85.3235 C27.7861,86.6265 25.7701,87.2785 23.1361,87.2785 L18.9181,87.2785 L18.9181,72.3855 L23.5951,72.3855 C26.0251,72.3855 27.9141,73.0265 29.2591,74.3105 C30.6031,75.5945 31.2751,77.3875 31.2751,79.6895" id="Fill-5" fill="#363636"></path>
                <polygon id="Fill-7" fill="#363636" points="46.3418 87.2783 42.7558 87.2783 38.8548 81.0033 37.5198 81.9613 37.5198 87.2783 34.3618 87.2783 34.3618 72.3853 37.5198 72.3853 37.5198 79.2003 38.7628 77.4483 42.7968 72.3853 46.3008 72.3853 41.1058 78.9753"></polygon>
                <polygon id="Fill-9" fill="#363636" points="51.3906 55.2402 0.0396 55.2402 0.0396 52.2402 50.2086 52.2402 65.9766 37.5232 68.0236 39.7172"></polygon>
                <polygon id="Fill-11" fill="#363636" points="48.76 105.04 51.76 105.04 51.76 54.28 48.76 54.28"></polygon>
                <polygon id="Fill-13" fill="#363636" points="7.599 47.68 58.9 47.68 58.9 44.68 7.599 44.68"></polygon>
                <path d="M109.5,29.6201 C109.5,45.0841 96.964,57.6201 81.5,57.6201 C66.036,57.6201 53.5,45.0841 53.5,29.6201 C53.5,14.1561 66.036,1.6201 81.5,1.6201 C96.964,1.6201 109.5,14.1561 109.5,29.6201" id="Fill-14" fill="#00B14D"></path>
                <path d="M81.5,3.1201 C66.888,3.1201 55,15.0081 55,29.6201 C55,44.2321 66.888,56.1201 81.5,56.1201 C96.112,56.1201 108,44.2321 108,29.6201 C108,15.0081 96.112,3.1201 81.5,3.1201 M81.5,59.1201 C65.233,59.1201 52,45.8871 52,29.6201 C52,13.3531 65.233,0.1201 81.5,0.1201 C97.767,0.1201 111,13.3531 111,29.6201 C111,45.8871 97.767,59.1201 81.5,59.1201" id="Fill-15" fill="#00B14D"></path>
                <polygon id="Fill-16" fill="#FFFFFF" points="70.9189 42.3223 68.7979 40.2013 92.0809 16.9183 94.2019 19.0393"></polygon>
                <polygon id="Fill-17" fill="#FFFFFF" points="92.0811 42.3223 68.7981 19.0393 70.9191 16.9183 94.2021 40.2013"></polygon>
            </g>
        </g>
    </g>
</svg>