<?xml version="1.0" encoding="UTF-8"?>
<svg width="300px" height="171px" viewBox="0 0 300 171" version="1.1" xmlns="http://www.w3.org/2000/svg" xmlns:xlink="http://www.w3.org/1999/xlink">
    <!-- Generator: Sketch 43.2 (39069) - http://www.bohemiancoding.com/sketch -->
    <title>APITable Landing Page Copy 12</title>
    <desc>Created with Sketch.</desc>
    <defs></defs>
    <g id="Page-1" stroke="none" stroke-width="1" fill="none" fill-rule="evenodd">
        <g id="Page-1-Copy-3" transform="translate(77.000000, 16.000000)">
            <path d="M131.5,69.4996 C131.5,105.6746 102.175,134.9996 66,134.9996 C29.825,134.9996 0.5,105.6746 0.5,69.4996 C0.5,33.3246 29.825,3.9996 66,3.9996 C102.175,3.9996 131.5,33.3246 131.5,69.4996 Z" id="Fill-1" fill-opacity="0.2" fill="#00B14D"></path>
            <path d="M131.5,69.4996 C131.5,105.6746 102.175,134.9996 66,134.9996 C29.825,134.9996 0.5,105.6746 0.5,69.4996 C0.5,33.3246 29.825,3.9996 66,3.9996 C102.175,3.9996 131.5,33.3246 131.5,69.4996 Z" id="Stroke-3" stroke="#363636" stroke-width="3" stroke-linecap="round"></path>
            <path d="M122.165,79.1802 L43.295,79.1802 C41.736,79.1802 40.46,77.9052 40.46,76.3452 L40.46,17.4972 C40.46,15.9392 41.736,14.6632 43.295,14.6632 L122.165,14.6632 C123.725,14.6632 125,15.9392 125,17.4972 L125,76.3452 C125,77.9052 123.725,79.1802 122.165,79.1802" id="Fill-5" fill="#FFFFFF"></path>
            <path d="M122.165,79.1802 L43.295,79.1802 C41.736,79.1802 40.46,77.9052 40.46,76.3452 L40.46,17.4972 C40.46,15.9392 41.736,14.6632 43.295,14.6632 L122.165,14.6632 C123.725,14.6632 125,15.9392 125,17.4972 L125,76.3452 C125,77.9052 123.725,79.1802 122.165,79.1802 Z" id="Stroke-7" stroke="#363636" stroke-width="3" stroke-linecap="round"></path>
            <path d="M40.46,25.7867 L125,25.7867" id="Stroke-9" stroke="#363636" stroke-width="3" stroke-linecap="round"></path>
            <path d="M48.6182,20.2252 C48.6182,20.8392 48.1202,21.3372 47.5052,21.3372 C46.8902,21.3372 46.3922,20.8392 46.3922,20.2252 C46.3922,19.6112 46.8902,19.1132 47.5052,19.1132 C48.1202,19.1132 48.6182,19.6112 48.6182,20.2252 Z" id="Stroke-11" stroke="#363636" stroke-width="3" stroke-linecap="round"></path>
            <path d="M55.292,20.2252 C55.292,20.8392 54.794,21.3372 54.18,21.3372 C53.565,21.3372 53.067,20.8392 53.067,20.2252 C53.067,19.6112 53.565,19.1132 54.18,19.1132 C54.794,19.1132 55.292,19.6112 55.292,20.2252 Z" id="Stroke-13" stroke="#363636" stroke-width="3" stroke-linecap="round"></path>
            <path d="M61.9658,20.2252 C61.9658,20.8392 61.4678,21.3372 60.8538,21.3372 C60.2388,21.3372 59.7408,20.8392 59.7408,20.2252 C59.7408,19.6112 60.2388,19.1132 60.8538,19.1132 C61.4678,19.1132 61.9658,19.6112 61.9658,20.2252 Z" id="Stroke-15" stroke="#363636" stroke-width="3" stroke-linecap="round"></path>
            <polygon id="Fill-17" fill-opacity="0.2" fill="#00B14D" points="46.764 35.798 81.618 35.798 81.618 32.831 46.764 32.831"></polygon>
            <polygon id="Fill-19" fill-opacity="0.2" fill="#00B14D" points="46.764 42.472 106.831 42.472 106.831 39.506 46.764 39.506"></polygon>
            <polygon id="Fill-21" fill-opacity="0.2" fill="#00B14D" points="46.764 49.888 66.786 49.888 66.786 46.921 46.764 46.921"></polygon>
            <path d="M41.583,123.4996 L13.771,123.4996 C10.242,123.4996 7.354,120.6116 7.354,117.0826 L7.354,51.5276 C7.354,47.9986 10.242,45.1106 13.771,45.1106 L41.583,45.1106 C45.112,45.1106 48,47.9986 48,51.5276 L48,117.0826 C48,120.6116 45.112,123.4996 41.583,123.4996" id="Fill-23" fill="#FFFFFF"></path>
            <path d="M41.583,123.4996 L13.771,123.4996 C10.242,123.4996 7.354,120.6116 7.354,117.0826 L7.354,51.5276 C7.354,47.9986 10.242,45.1106 13.771,45.1106 L41.583,45.1106 C45.112,45.1106 48,47.9986 48,51.5276 L48,117.0826 C48,120.6116 45.112,123.4996 41.583,123.4996 Z" id="Stroke-25" stroke="#363636" stroke-width="3" stroke-linecap="round"></path>
            <polygon id="Stroke-27" stroke="#363636" stroke-width="3" stroke-linecap="round" points="11.709 109.709 44.371 109.709 44.371 55.272 11.709 55.272"></polygon>
            <path d="M25.5,50.9175 L32.758,50.9175" id="Stroke-29" stroke="#363636" stroke-width="3" stroke-linecap="round"></path>
            <path d="M31.3057,116.6041 C31.3057,118.4081 29.8437,119.8711 28.0397,119.8711 C26.2367,119.8711 24.7737,118.4081 24.7737,116.6041 C24.7737,114.8001 26.2367,113.3381 28.0397,113.3381 C29.8437,113.3381 31.3057,114.8001 31.3057,116.6041 Z" id="Stroke-31" stroke="#363636" stroke-width="3" stroke-linecap="round"></path>
            <polygon id="Fill-32" fill-opacity="0.2" fill="#00B14D" points="14.975 74.506 41.104 74.506 41.104 59.264 14.975 59.264"></polygon>
            <polygon id="Fill-33" fill-opacity="0.2" fill="#00B14D" points="14.975 87.572 27.314 87.572 27.314 77.41 14.975 77.41"></polygon>
            <path d="M104.6992,88.5992 C104.6992,102.7382 93.2382,114.1992 79.0992,114.1992 C64.9612,114.1992 53.5002,102.7382 53.5002,88.5992 C53.5002,74.4602 64.9612,62.9992 79.0992,62.9992 C93.2382,62.9992 104.6992,74.4602 104.6992,88.5992" id="Fill-34" fill="#FFFFFF"></path>
            <path d="M104.6992,88.5992 C104.6992,102.7382 93.2382,114.1992 79.0992,114.1992 C64.9612,114.1992 53.5002,102.7382 53.5002,88.5992 C53.5002,74.4602 64.9612,62.9992 79.0992,62.9992 C93.2382,62.9992 104.6992,74.4602 104.6992,88.5992 Z" id="Stroke-35" stroke="#363636" stroke-width="3" stroke-linecap="round"></path>
            <path d="M92.0293,75.6695 C99.1713,82.8105 99.1713,94.3885 92.0293,101.5285" id="Stroke-36" stroke="#363636" stroke-width="3" stroke-linecap="round"></path>
            <path d="M127.9521,135.7144 L126.2151,137.4514 C125.1121,138.5544 123.3081,138.5544 122.2061,137.4514 L101.5051,116.7504 C100.4021,115.6484 100.4021,113.8444 101.5051,112.7414 L103.2421,111.0044 C104.3451,109.9024 106.1481,109.9024 107.2511,111.0044 L127.9521,131.7054 C129.0551,132.8084 129.0551,134.6114 127.9521,135.7144" id="Fill-37" fill="#00B14D"></path>
            <path d="M127.9521,135.7144 L126.2151,137.4514 C125.1121,138.5544 123.3081,138.5544 122.2061,137.4514 L101.5051,116.7504 C100.4021,115.6484 100.4021,113.8444 101.5051,112.7414 L103.2421,111.0044 C104.3451,109.9024 106.1481,109.9024 107.2511,111.0044 L127.9521,131.7054 C129.0551,132.8084 129.0551,134.6114 127.9521,135.7144 Z" id="Stroke-38" stroke="#363636" stroke-width="3" stroke-linecap="round"></path>
            <path d="M97.7764,107.2759 L101.7984,111.2979" id="Stroke-39" stroke="#363636" stroke-width="3" stroke-linecap="round"></path>
            <path d="M142,35.4996 L142,37.6046" id="Stroke-40" stroke="#363636" stroke-width="3" stroke-linecap="round"></path>
            <path d="M142,43.3941 L142,45.4991" id="Stroke-41" stroke="#363636" stroke-width="3" stroke-linecap="round"></path>
            <path d="M147,40.4996 L144.895,40.4996" id="Stroke-42" stroke="#363636" stroke-width="3" stroke-linecap="round"></path>
            <path d="M139.1055,40.4996 L137.0005,40.4996" id="Stroke-43" stroke="#363636" stroke-width="3" stroke-linecap="round"></path>
            <path d="M133.5,0.4996 L133.5,4.0786" id="Stroke-44" stroke="#363636" stroke-width="3" stroke-linecap="round"></path>
            <path d="M133.5,13.9205 L133.5,17.4995" id="Stroke-45" stroke="#363636" stroke-width="3" stroke-linecap="round"></path>
            <path d="M142,8.9996 L138.421,8.9996" id="Stroke-46" stroke="#363636" stroke-width="3" stroke-linecap="round"></path>
            <path d="M128.5791,8.9996 L125.0001,8.9996" id="Stroke-47" stroke="#363636" stroke-width="3" stroke-linecap="round"></path>
        </g>
    </g>
</svg>