<?xml version="1.0" encoding="UTF-8"?>
<svg width="300px" height="171px" viewBox="0 0 300 171" version="1.1" xmlns="http://www.w3.org/2000/svg" xmlns:xlink="http://www.w3.org/1999/xlink">
    <!-- Generator: Sketch 43.2 (39069) - http://www.bohemiancoding.com/sketch -->
    <title>APITable Landing Page Copy 11</title>
    <desc>Created with Sketch.</desc>
    <defs></defs>
    <g id="Page-1" stroke="none" stroke-width="1" fill="none" fill-rule="evenodd">
        <g id="Page-1-Copy-4" transform="translate(84.000000, 12.000000)">
            <path d="M112.3154,34.3466 C137.8944,59.9256 137.8944,101.3986 112.3154,126.9776 C86.7364,152.5566 45.2634,152.5566 19.6844,126.9776" id="Fill-1" fill="#00B14D" opacity="0.2"></path>
            <path d="M131.5,80.662 C131.5,116.837 102.175,146.162 66,146.162 C29.825,146.162 0.5,116.837 0.5,80.662 C0.5,44.487 29.825,15.162 66,15.162 C102.175,15.162 131.5,44.487 131.5,80.662 Z" id="Stroke-3" stroke="#464646" stroke-width="3" stroke-linecap="round"></path>
            <path d="M119,109.162 C117.531,109.162 116.148,109.535 114.943,110.191 C115.302,109.079 115.5,107.894 115.5,106.662 C115.5,100.31 110.352,95.162 104,95.162 C101.015,95.162 98.305,96.308 96.261,98.174 L87.5,88.162 L44.5,88.162 L33.378,101.146 C32.117,99.92 30.398,99.162 28.5,99.162 C24.634,99.162 21.5,102.296 21.5,106.162 C21.5,106.889 21.611,107.589 21.816,108.248 C21.384,108.196 20.946,108.162 20.5,108.162 C15.862,108.162 11.902,111.036 10.285,115.098 C21.831,133.739 42.461,146.162 66,146.162 C91.271,146.162 113.186,131.841 124.108,110.88 C122.686,109.807 120.92,109.162 119,109.162" id="Fill-5" fill="#FFFFFF"></path>
            <path d="M119,109.162 C117.531,109.162 116.148,109.535 114.943,110.191 C115.302,109.079 115.5,107.894 115.5,106.662 C115.5,100.31 110.352,95.162 104,95.162 C101.015,95.162 98.305,96.308 96.261,98.174 L87.5,88.162 L44.5,88.162 L33.378,101.146 C32.117,99.92 30.398,99.162 28.5,99.162 C24.634,99.162 21.5,102.296 21.5,106.162 C21.5,106.889 21.611,107.589 21.816,108.248 C21.384,108.196 20.946,108.162 20.5,108.162 C15.862,108.162 11.902,111.036 10.285,115.098 C21.831,133.739 42.461,146.162 66,146.162 C91.271,146.162 113.186,131.841 124.108,110.88 C122.686,109.807 120.92,109.162 119,109.162 Z" id="Stroke-7" stroke="#464646" stroke-width="3" stroke-linecap="round"></path>
            <path d="M92.5,97.162 L34.5,138.037 C34.5,138.037 63.75,156.662 99.125,137.412 C105.5,134.162 119.717,115.412 124.108,110.787 C124.108,110.787 120.5,107.162 115.5,109.162 C115.5,109.162 117.5,101.162 110.5,96.162 C103.5,91.162 92.5,97.162 92.5,97.162" id="Fill-9" fill="#00B14D"></path>
            <path d="M119,109.162 C117.531,109.162 116.148,109.535 114.943,110.191 C115.302,109.079 115.5,107.894 115.5,106.662 C115.5,100.31 110.352,95.162 104,95.162 C101.015,95.162 98.305,96.308 96.261,98.174 L87.5,88.162 L44.5,88.162 L33.378,101.146 C32.117,99.92 30.398,99.162 28.5,99.162 C24.634,99.162 21.5,102.296 21.5,106.162 C21.5,106.889 21.611,107.589 21.816,108.248 C21.384,108.196 20.946,108.162 20.5,108.162 C15.862,108.162 11.902,111.036 10.285,115.098 C21.831,133.739 42.461,146.162 66,146.162 C91.271,146.162 113.186,131.841 124.108,110.88 C122.686,109.807 120.92,109.162 119,109.162" id="Fill-11" fill="#FFFFFF"></path>
            <path d="M119,109.162 C117.531,109.162 116.148,109.535 114.943,110.191 C115.302,109.079 115.5,107.894 115.5,106.662 C115.5,100.31 110.352,95.162 104,95.162 C101.015,95.162 98.305,96.308 96.261,98.174 L87.5,88.162 L44.5,88.162 L33.378,101.146 C32.117,99.92 30.398,99.162 28.5,99.162 C24.634,99.162 21.5,102.296 21.5,106.162 C21.5,106.889 21.611,107.589 21.816,108.248 C21.384,108.196 20.946,108.162 20.5,108.162 C15.862,108.162 11.902,111.036 10.285,115.098 C21.831,133.739 42.461,146.162 66,146.162 C91.271,146.162 113.186,131.841 124.108,110.88 C122.686,109.807 120.92,109.162 119,109.162 Z" id="Stroke-13" stroke="#464646" stroke-width="3" stroke-linecap="round"></path>
            <path d="M52,127.662 C52,127.662 61,126.662 65,135.662 C65,135.662 66,136.824 66,133.662 C66,128.662 60,123.662 52,127.662" id="Fill-15" fill="#00B14D" opacity="0.2"></path>
            <g id="Group-20" transform="translate(31.000000, 74.662000)">
                <path d="M11.8838,0.5742 C11.8838,0.5742 -8.7742,14.5502 4.5928,41.2852 C4.5928,41.2852 3.3778,26.0952 17.3528,20.6262" id="Fill-17" fill="#00B14D"></path>
                <path d="M11.8838,0.5742 C11.8838,0.5742 -8.7742,14.5502 4.5928,41.2852 C4.5928,41.2852 3.3778,26.0952 17.3528,20.6262" id="Stroke-19" stroke="#464646" stroke-width="3" stroke-linecap="round" stroke-linejoin="round"></path>
            </g>
            <g id="Group-24" transform="translate(82.000000, 74.662000)">
                <path d="M0.7383,20.626 C14.7133,26.095 13.4983,41.285 13.4983,41.285 C26.8653,14.55 6.2073,0.574 6.2073,0.574" id="Fill-21" fill="#00B14D"></path>
                <path d="M0.7383,20.626 C14.7133,26.095 13.4983,41.285 13.4983,41.285 C26.8653,14.55 6.2073,0.574 6.2073,0.574" id="Stroke-23" stroke="#464646" stroke-width="3" stroke-linecap="round" stroke-linejoin="round"></path>
            </g>
            <path d="M77.8379,102.579 C84.4409,93.396 88.8349,77.105 88.8349,58.527 C88.8349,29.835 78.3609,0.5 65.4419,0.5 C52.5229,0.5 42.0489,29.835 42.0489,58.527 C42.0489,77.105 46.4429,93.396 53.0459,102.579 L77.8379,102.579 Z" id="Fill-25" fill="#FFFFFF"></path>
            <path d="M77.8379,102.579 C84.4409,93.396 88.8349,77.105 88.8349,58.527 C88.8349,29.835 78.3609,0.5 65.4419,0.5 C52.5229,0.5 42.0489,29.835 42.0489,58.527 C42.0489,77.105 46.4429,93.396 53.0459,102.579 L77.8379,102.579 Z" id="Stroke-27" stroke="#464646" stroke-width="3" stroke-linecap="round"></path>
            <path d="M72.625,102.537 L78,102.662 C78,102.662 84,91.662 87.75,73.287 C91.5,54.912 83.5,22.162 83.5,22.162 C83.5,22.162 75.5,0.162 65.5,0.162 C65.5,0.162 81.829,12.197 83,49.662 C84,81.662 72.625,102.537 72.625,102.537" id="Fill-29" fill="#00B14D" opacity="0.2"></path>
            <path d="M77.8379,102.579 C84.4409,93.396 88.8349,77.105 88.8349,58.527 C88.8349,29.835 78.3609,0.5 65.4419,0.5 C52.5229,0.5 42.0489,29.835 42.0489,58.527 C42.0489,77.105 46.4429,93.396 53.0459,102.579 L77.8379,102.579 Z" id="Stroke-31" stroke="#464646" stroke-width="3" stroke-linecap="round"></path>
            <path d="M69.3916,95.8954 C69.3916,107.6404 67.6226,117.1624 65.4416,117.1624 C63.2606,117.1624 61.4926,107.6404 61.4926,95.8954 C61.4926,84.1504 63.2606,74.6284 65.4416,74.6284 C67.6226,74.6284 69.3916,84.1504 69.3916,95.8954" id="Fill-33" fill="#00B14D"></path>
            <path d="M69.3916,95.8954 C69.3916,107.6404 67.6226,117.1624 65.4416,117.1624 C63.2606,117.1624 61.4926,107.6404 61.4926,95.8954 C61.4926,84.1504 63.2606,74.6284 65.4416,74.6284 C67.6226,74.6284 69.3916,84.1504 69.3916,95.8954 Z" id="Stroke-35" stroke="#464646" stroke-width="3" stroke-linecap="round"></path>
            <path d="M78.2021,43.995 C78.2021,51.042 72.4891,56.755 65.4411,56.755 C58.3941,56.755 52.6811,51.042 52.6811,43.995 C52.6811,36.947 58.3941,31.235 65.4411,31.235 C72.4891,31.235 78.2021,36.947 78.2021,43.995 Z" id="Stroke-37" stroke="#464646" stroke-width="3" stroke-linecap="round"></path>
            <path d="M48.6436,22.121 L82.4996,22.162" id="Stroke-39" stroke="#464646" stroke-width="3" stroke-linecap="round"></path>
            <path d="M66.5,135.662 C66.5,130.415 62.247,126.162 57,126.162 C53.942,126.162 51.229,127.612 49.492,129.856 C48.667,128.831 47.418,128.162 46,128.162 C43.515,128.162 41.5,130.177 41.5,132.662" id="Stroke-41" stroke="#464646" stroke-width="3" stroke-linecap="round"></path>
            <path d="M84.0898,123.1679 C83.6338,121.2699 84.8028,119.3599 86.7008,118.9039 C88.5998,118.4479 90.5088,119.6169 90.9648,121.5159" id="Stroke-43" stroke="#464646" stroke-width="3" stroke-linecap="round"></path>
            <path d="M26,49.662 L26,52.609" id="Stroke-45" stroke="#464646" stroke-width="3" stroke-linecap="round"></path>
            <path d="M26,60.7147 L26,63.6617" id="Stroke-47" stroke="#464646" stroke-width="3" stroke-linecap="round"></path>
            <path d="M33,56.662 L30.053,56.662" id="Stroke-49" stroke="#464646" stroke-width="3" stroke-linecap="round"></path>
            <path d="M21.9473,56.662 L19.0003,56.662" id="Stroke-51" stroke="#464646" stroke-width="3" stroke-linecap="round"></path>
            <path d="M111,71.662 L111,73.767" id="Stroke-53" stroke="#464646" stroke-width="3" stroke-linecap="round"></path>
            <path d="M111,79.5565 L111,81.6615" id="Stroke-55" stroke="#464646" stroke-width="3" stroke-linecap="round"></path>
            <path d="M116,76.662 L113.895,76.662" id="Stroke-57" stroke="#464646" stroke-width="3" stroke-linecap="round"></path>
            <path d="M108.1055,76.662 L106.0005,76.662" id="Stroke-59" stroke="#464646" stroke-width="3" stroke-linecap="round"></path>
        </g>
    </g>
</svg>