<?xml version="1.0" encoding="UTF-8"?>
<svg width="53px" height="48px" viewBox="0 0 53 48" version="1.1" xmlns="http://www.w3.org/2000/svg" xmlns:xlink="http://www.w3.org/1999/xlink">
    <!-- Generator: Sketch 43.2 (39069) - http://www.bohemiancoding.com/sketch -->
    <title>API-logo</title>
    <desc>Created with Sketch.</desc>
    <defs>
        <polygon id="path-1" points="0 0.275955556 0 25.7777333 52.1687556 25.7777333 52.1687556 0.275955556 0 0.275955556"></polygon>
        <polygon id="path-3" points="52.1688889 17.1107556 52.1688889 0.152533333 8.88888889e-05 0.152533333 8.88888889e-05 17.1107556 52.1688889 17.1107556"></polygon>
    </defs>
    <g id="Page-1" stroke="none" stroke-width="1" fill="none" fill-rule="evenodd">
        <g id="APITable-Landing-Page" transform="translate(-42.000000, -30.000000)">
            <g id="API-logo" transform="translate(42.000000, 30.000000)">
                <polygon id="Fill-1" fill="#FFFFFF" points="27.0604 38.8320444 26.0844 39.3089333 25.1084 38.8320444 8.60706667 30.7662667 -4.44444444e-05 34.9733778 26.0844 47.7244889 52.1688444 34.9733778 43.5612889 30.7662667"></polygon>
                <g id="Group-12" transform="translate(0.000000, 0.168889)">
                    <g id="Group-4">
                        <mask id="mask-2" fill="white">
                            <use xlink:href="#path-1"></use>
                        </mask>
                        <g id="Clip-3"></g>
                        <path d="M36.0456444,14.0506222 L34.9154222,13.5372889 C35.4940889,13.2146222 35.8140889,12.9137333 35.8727556,12.6359556 C35.9292,12.3595111 35.6847556,12.0959556 35.1336444,11.8466222 L32.7354222,10.7595111 C31.5758667,10.2355111 31.4736444,9.61017778 32.4287556,8.88617778 L32.3332,8.84173333 C31.6385333,9.11106667 30.9718667,9.24528889 30.3327556,9.24528889 C29.7060889,9.24528889 29.1065333,9.11551111 28.5336444,8.85595556 L26.1478667,7.77684444 C25.7043111,7.57506667 25.2429778,7.47417778 24.7643111,7.47417778 C24.1207556,7.47417778 23.4452,7.65595556 22.7380889,8.0204 L21.6149778,7.51151111 C21.6194222,7.50884444 21.6238667,7.50662222 21.6287556,7.5044 C22.5745333,6.99417778 23.5589778,6.69417778 24.5820889,6.59951111 C24.7896444,6.5804 24.9932,6.57106667 25.1927556,6.57106667 C25.9816444,6.57106667 26.7092,6.72128889 27.3749778,7.02395556 L29.8500889,8.14395556 C30.2727556,8.33684444 30.7069778,8.4324 31.1536444,8.4324 C31.2523111,8.4324 31.3514222,8.42795556 31.4518667,8.41862222 C32.0016444,8.36795556 32.6220889,8.15995556 33.3114222,7.79951111 L34.4514222,8.31373333 C33.8256444,8.65328889 33.4665333,8.96662222 33.3772,9.25151111 C33.2878667,9.53951111 33.5220889,9.80884444 34.0847556,10.0626222 L36.5305333,11.1719556 C37.3625333,11.5479556 37.7332,11.9857333 37.6478667,12.4861778 C37.5629778,12.9892889 37.0278667,13.5101778 36.0456444,14.0506222 L36.0456444,14.0506222 Z M27.3354222,18.0577333 C27.1478667,18.0741778 26.9629778,18.0821778 26.7812,18.0821778 C25.9936444,18.0821778 25.2620889,17.9288444 24.5896444,17.6230667 L22.1394222,16.5137333 C21.7012,16.3146222 21.2580889,16.2150667 20.8132,16.2150667 C20.6914222,16.2150667 20.5700889,16.2226222 20.4483111,16.2372889 C19.8763111,16.3061778 19.2807556,16.5097333 18.6527556,16.8484 L17.5149778,16.3324 C18.1820889,15.9599556 18.5434222,15.6368444 18.5980889,15.3612889 C18.6549778,15.0848444 18.4234222,14.8292889 17.9052,14.5955111 L15.4340889,13.4750667 C14.5980889,13.0968444 14.2323111,12.6501778 14.3327556,12.1346222 C14.4349778,11.6204 14.9612,11.1061778 15.9092,10.5932889 L17.0323111,11.1017333 C15.8652,11.7652889 15.7998667,12.3337333 16.8403111,12.8039556 L19.2234222,13.8844 C20.3803111,14.4097333 20.4812,15.0341778 19.5278667,15.7590667 L19.6256444,15.8017333 C20.3185333,15.5324 20.9852,15.3977333 21.6238667,15.3977333 C22.2514222,15.3977333 22.8518667,15.5275111 23.4252,15.7879556 L25.8238667,16.8750667 C26.2767556,17.0799556 26.7309778,17.1830667 27.1847556,17.1830667 C27.2829778,17.1830667 27.3816444,17.1781778 27.4798667,17.1688444 C28.0318667,17.1168444 28.6100889,16.9337333 29.2114222,16.6199556 L30.3416444,17.1315111 C29.3380889,17.6635111 28.3363111,17.9728444 27.3354222,18.0577333 L27.3354222,18.0577333 Z M26.0843111,0.275955556 L-0.000133333333,13.0266222 L26.0843111,25.7777333 L52.1687556,13.0266222 L26.0843111,0.275955556 Z" id="Fill-2" fill="#FFFFFF" mask="url(#mask-2)"></path>
                    </g>
                    <path d="M29.1085778,16.4230222 C28.5352444,16.7221333 27.9801333,16.8985778 27.4588,16.9474667 L27.4579111,16.9474667 C26.9476889,16.9994667 26.4290222,16.9052444 25.9152444,16.6728 L23.5174667,15.5856889 C22.5054667,15.1261333 21.3979111,15.0528 20.2228,15.3710222 C20.3588,15.1625778 20.4148,14.9563556 20.3916889,14.7492444 C20.3454667,14.3394667 19.9934667,13.9896889 19.3152444,13.6821333 L16.9321333,12.6012444 C16.5499111,12.4292444 16.3356889,12.2452444 16.3281333,12.0839111 C16.3236889,11.9883556 16.3943556,11.7203556 17.1419111,11.2950222 L17.5214667,11.0794667 L15.9005778,10.3452444 L15.8032444,10.3976889 C14.7845778,10.9492444 14.2316889,11.5034667 14.1143556,12.0923556 C13.9921333,12.7199111 14.4054667,13.2532444 15.3423556,13.6772444 L17.8134667,14.7981333 C18.0436889,14.9016889 18.4236889,15.1074667 18.3801333,15.3181333 C18.3614667,15.4119111 18.2294667,15.6785778 17.4063556,16.1381333 L17.0223556,16.3528 L18.6614667,17.0963556 L18.7583556,17.0439111 C19.3676889,16.7154667 19.9294667,16.5239111 20.4752444,16.4576889 C20.9996889,16.3945778 21.5294667,16.4803556 22.0476889,16.7159111 L24.4974667,17.8252444 C25.1974667,18.1434667 25.9659111,18.3043556 26.7814667,18.3043556 C26.9699111,18.3043556 27.1610222,18.2959111 27.3543556,18.2790222 C28.3783556,18.1923556 29.4183556,17.8723556 30.4459111,17.3274667 L30.8459111,17.1159111 L29.2045778,16.3732444 L29.1085778,16.4230222 Z" id="Fill-5" fill="#1FA559"></path>
                    <path d="M36.622,10.9694667 L34.1762222,9.86013333 C33.9286667,9.74857778 33.5233333,9.52946667 33.5895556,9.31791111 C33.6295556,9.19035556 33.8082222,8.91568889 34.5571111,8.50902222 L34.9508889,8.29524444 L33.3037778,7.55257778 L33.2082222,7.60235556 C32.5446667,7.94946667 31.9468889,8.14946667 31.4317778,8.19746667 C30.9166667,8.24457778 30.4202222,8.15968889 29.9415556,7.94191111 L27.4668889,6.82191111 C26.6037778,6.42902222 25.6286667,6.28057778 24.5615556,6.37835556 C23.51,6.47568889 22.4877778,6.78857778 21.5011111,7.32102222 L21.1371111,7.5388 L22.7437778,8.26724444 L22.8393333,8.21791111 C24.006,7.61746667 25.0837778,7.53657778 26.0566667,7.9788 L28.4415556,9.05791111 C29.4531111,9.51657778 30.5571111,9.58991111 31.734,9.27302222 C31.5966667,9.48102222 31.5411111,9.68724444 31.5642222,9.89435556 C31.6108889,10.3054667 31.9637778,10.6548 32.6437778,10.9614667 L35.042,12.0490222 C35.4633333,12.2392444 35.6868889,12.4374667 35.6553333,12.5899111 C35.6304444,12.7085778 35.4864444,12.9641333 34.8073333,13.3432444 L34.4228889,13.5574667 L36.0553333,14.2988 L36.1526667,14.2454667 C37.2086667,13.6641333 37.7695556,13.1010222 37.8673333,12.5236889 C37.9708889,11.9125778 37.5522222,11.3894667 36.622,10.9694667" id="Fill-7" fill="#1FA559"></path>
                    <g id="Group-11" transform="translate(0.000000, 19.555556)">
                        <mask id="mask-4" fill="white">
                            <use xlink:href="#path-3"></use>
                        </mask>
                        <g id="Clip-10"></g>
                        <polygon id="Fill-9" fill="#FFFFFF" mask="url(#mask-4)" points="47.1089778 4.36008889 26.0840889 14.6374222 5.06008889 4.36008889 11.1374222 1.38897778 8.6072 0.152533333 8.88888889e-05 4.36008889 26.0840889 17.1107556 52.1689778 4.36008889 43.5614222 0.152533333 41.0312 1.38897778"></polygon>
                    </g>
                </g>
            </g>
        </g>
    </g>
</svg>