<?xml version="1.0" encoding="UTF-8"?>
<svg width="278px" height="202px" viewBox="0 0 278 202" version="1.1" xmlns="http://www.w3.org/2000/svg" xmlns:xlink="http://www.w3.org/1999/xlink">
    <!-- Generator: Sketch 43.2 (39069) - http://www.bohemiancoding.com/sketch -->
    <title>Top Image</title>
    <desc>Created with Sketch.</desc>
    <defs></defs>
    <g id="Page-1" stroke="none" stroke-width="1" fill="none" fill-rule="evenodd">
        <g id="APITable-Landing-Page" transform="translate(-374.000000, -204.000000)">
            <g id="Top-Image" transform="translate(374.000000, 204.000000)">
                <path d="M165.497045,177.151282 C162.039728,171.443629 160.311531,168.58888 156.855137,162.880305 C172.095028,159.616021 187.335843,156.350816 202.576657,153.086533 C206.033051,158.795108 207.761248,161.648012 211.217642,167.35751 C195.978674,170.621793 180.736936,173.886076 165.497045,177.151282 M57.8050757,184.098606 C73.0449669,180.8334 88.2857813,177.569117 103.526596,174.303912 C106.983913,180.01341 108.71211,182.866314 112.168504,188.574889 C96.9286128,191.840094 81.6877984,195.104378 66.446984,198.369583 C62.9905899,192.661008 61.2623929,189.807181 57.8050757,184.098606 M50.7141134,87.0952543 C54.1714307,92.8038296 55.8996277,95.6576561 59.3560217,101.366231 C44.1161305,104.630515 28.875316,107.89572 13.6345016,111.160003 C10.1781076,105.45235 8.44991055,102.598524 4.99259333,96.8899484 C20.2324846,93.6247429 35.473299,90.3604598 50.7141134,87.0952543 M158.40516,80.1479301 C143.166192,83.4131356 127.925377,86.6774187 112.684563,89.9426242 C109.227246,84.2340488 107.499049,81.3802223 104.042655,75.671647 C119.282546,72.4064415 134.52336,69.1421584 149.764175,65.8769529 C153.220569,71.5855283 154.948766,74.4402771 158.40516,80.1479301 M146.292087,145.439126 C161.532901,142.173921 176.773715,138.909638 192.01453,135.644432 C195.470924,141.352085 197.199121,144.206834 200.655515,149.91541 C185.415624,153.179693 170.173886,156.444898 154.934918,159.710104 C151.476678,154.000606 149.748481,151.147702 146.292087,145.439126 M47.2420253,166.656505 C62.4828397,163.392222 77.7236541,160.127017 92.9644686,156.862734 C96.4217858,162.570387 98.1499828,165.425136 101.606377,171.133711 C86.3655624,174.397994 71.124748,177.6632 55.8848568,180.927483 C52.4275395,175.218907 50.6993425,172.366003 47.2420253,166.656505 M69.9190721,118.80741 C54.6782577,122.072615 39.4374432,125.336898 24.1966288,128.602104 C20.7402348,122.894451 19.0120377,120.039702 15.5547205,114.332049 C30.795535,111.066843 46.0363494,107.801638 61.2762406,104.536432 C64.734481,110.24593 66.4626781,113.099757 69.9190721,118.80741 M123.24669,107.383802 C119.789373,101.676149 118.061176,98.8214004 114.604782,93.1137474 C129.845596,89.8494643 145.086411,86.5842589 160.326302,83.3190534 C163.783619,89.0276287 165.511816,91.8814552 168.96821,97.5900306 C153.728319,100.854314 138.487505,104.119519 123.24669,107.383802 M133.80974,124.825903 C130.352423,119.117327 128.624226,116.263501 125.166909,110.555848 C140.407723,107.290642 155.648538,104.026359 170.889352,100.761154 C174.345746,106.468807 176.073943,109.323556 179.530337,115.031209 C164.290446,118.296414 149.050555,121.560697 133.80974,124.825903 M135.729959,127.997026 C150.970774,124.732743 166.210665,121.467537 181.451479,118.203254 C184.907874,123.910907 186.636071,126.764734 190.093388,132.473309 C174.853497,135.738515 159.611759,139.00372 144.371868,142.268003 C140.91455,136.559428 139.186353,133.704679 135.729959,127.997026 M86.2040056,138.606177 C101.445743,135.341894 116.686558,132.076688 131.927372,128.812405 C135.383766,134.520058 137.111963,137.373884 140.56928,143.081537 C125.327543,146.347665 110.087651,149.611948 94.846837,152.877154 C91.390443,147.168578 89.6613228,144.31383 86.2040056,138.606177 M82.4014182,139.420633 C85.8587354,145.129209 87.5869324,147.983035 91.0442497,153.690688 C75.8034352,156.955894 60.5626208,160.221099 45.3218064,163.486305 C41.8654123,157.777729 40.1372153,154.92298 36.6798981,149.215327 C51.9207125,145.950122 67.1606038,142.685839 82.4014182,139.420633 M75.6418784,121.164999 C90.883616,117.899793 106.12443,114.63551 121.364322,111.370305 C124.820716,117.077957 126.549836,119.932706 130.007153,125.640359 C114.765415,128.904642 99.5255243,132.169848 84.2837866,135.434131 C80.8273926,129.726478 79.0991956,126.872652 75.6418784,121.164999 M80.4811993,136.24951 C65.2403849,139.513793 50.0004936,142.778999 34.7596792,146.043282 C31.3032851,140.335629 29.5750881,137.481802 26.1168477,131.774149 C41.3576621,128.508944 56.5984766,125.243738 71.839291,121.979455 C75.2966082,127.687108 77.0248052,130.541857 80.4811993,136.24951 M63.1586091,100.550852 C59.702215,94.8431995 57.974018,91.989373 54.5167008,86.2807977 C69.7584384,83.0155922 84.9992528,79.7513091 100.239144,76.4861036 C103.696461,82.194679 105.424658,85.0485054 108.881976,90.7570808 C93.6402379,94.0213639 78.4003467,97.2865694 63.1586091,100.550852 M110.802194,93.9282041 C114.258588,99.6367794 115.986786,102.490606 119.444103,108.198259 C104.202365,111.463464 88.9633971,114.727747 73.7216594,117.992953 C70.2652654,112.2853 68.5370684,109.430551 65.0797512,103.722898 C80.3205656,100.458615 95.56138,97.1924872 110.802194,93.9282041 M153.05255,163.694761 C156.508944,169.404259 158.237141,172.257163 161.694458,177.965738 C146.45272,181.230944 131.212829,184.495227 115.972015,187.760432 C112.514697,182.051857 110.7865,179.198031 107.329183,173.489455 C122.570921,170.225172 137.811735,166.959967 153.05255,163.694761 M105.408964,170.318332 C101.95257,164.609757 100.224373,161.756852 96.7670559,156.048277 C112.008794,152.783072 127.248685,149.518789 142.489499,146.253583 C145.945893,151.961236 147.67409,154.815985 151.131407,160.52456 C135.890593,163.788843 120.650702,167.054049 105.408964,170.318332 M149.745711,62.2981401 C100.219757,72.9072908 50.6956498,83.5164415 1.17061915,94.1255922 C0.12003784,94.3506516 -0.300933229,95.2425876 0.228973336,96.1188433 L63.6045061,200.769601 C64.1344126,201.645857 65.4167127,202.172533 66.4663708,201.948396 C115.991401,191.339245 165.516432,180.730094 215.04054,170.120944 C216.091121,169.895884 216.512092,169.003948 215.982185,168.127693 C194.857008,133.243492 173.73183,98.3611356 152.606653,63.4769347 C152.076746,62.6016013 150.795369,62.0740032 149.745711,62.2981401" id="Page-1" fill="#FFFFFF"></path>
                <path d="M174.67163,33.257027 C125.145676,43.8661777 75.6215683,54.4753284 26.0965377,65.084479 C25.0459564,65.3095384 24.6249853,66.2014745 25.1548919,67.0777302 L88.5304246,171.728488 C89.0603312,172.604744 90.3426312,173.13142 91.3922893,172.907283 C140.91732,162.298132 190.442351,151.688981 239.966458,141.079831 C241.017039,140.854771 241.43801,139.962835 240.908104,139.08658 C219.782926,104.202379 198.657749,69.3200224 177.532571,34.4358215 C177.002665,33.5604882 175.721288,33.03289 174.67163,33.257027" id="Page-1-Copy" fill="#FFFFFF" opacity="0.465353261"></path>
                <g id="Page-1" transform="translate(60.000000, 0.000000)">
                    <g id="Group-3" transform="translate(0.000000, 0.477046)" fill="#FFFFFF">
                        <path d="M1.17646536,32.5279307 C0.120282353,32.7543882 -0.302933333,33.6518654 0.229798693,34.5335647 C21.4676157,69.6335516 42.7054327,104.733539 63.9432497,139.834454 C64.4759817,140.715225 65.765119,141.246101 66.8203739,141.019643 C116.609472,130.345512 166.39857,119.670454 216.18674,108.995395 C217.242923,108.768009 217.666139,107.87146 217.133407,106.988833 C195.89559,71.8888458 174.657773,36.7897869 153.419956,1.6888719 C152.887224,0.807172549 151.598086,0.277224837 150.542831,0.502754248 C100.753733,11.1778131 50.9655634,21.8528719 1.17646536,32.5279307" id="Fill-1"></path>
                    </g>
                    <path d="M69.796434,62.8439098 L74.6411399,70.8515961 C75.6546301,72.5258967 75.7966301,73.894851 75.0708523,74.9566026 C74.3432183,76.0192824 72.6317935,76.859217 69.9356497,77.4764065 C70.8284863,78.9520928 71.2758327,79.6899359 72.1686693,81.1656222 C74.6764078,80.6273216 76.8240418,80.6069033 78.6106431,81.1006549 C80.3972444,81.5944065 81.8385908,82.7480405 82.9365386,84.5615569 C84.8558588,87.7338183 85.815519,89.3190209 87.7339111,92.4903542 C89.3590222,95.177217 91.7061987,97.0287856 94.7772967,98.0459882 C97.8483948,99.0613346 101.379833,99.162498 105.372539,98.345766 C104.486199,96.8802889 104.042565,96.1480144 103.156225,94.6825373 C100.772852,95.1540144 98.7273098,95.1187464 97.0195974,94.5785895 C95.3109569,94.0384327 95.7870745,94.2305503 94.7104732,92.4513739 C92.082081,88.8029948 90.767885,86.9783412 88.1404209,83.3281059 C85.8702771,79.5776353 82.1996235,77.8634261 77.127532,78.1808379 C77.0514275,78.0555438 77.0133752,77.9924327 76.9372706,77.8671386 C81.1861333,76.1881974 82.177349,73.4725634 79.9081333,69.7220928 C78.0389307,66.6342889 77.1052575,65.090851 75.236983,62.0030471 C73.1997935,58.6368118 74.5529699,56.3852301 79.2965124,55.2492301 C78.4166693,53.7948902 77.9767477,53.0681843 77.0959765,51.6119882 C73.2926039,52.4277922 70.7152575,53.828302 69.3657935,55.8125895 C68.0172575,57.7968771 68.1601856,60.1412693 69.796434,62.8439098" id="Fill-4" fill="#00B14D"></path>
                    <path d="M138.556825,61.3448353 C136.86025,60.8028222 135.503361,59.6946654 134.489871,58.0194366 C132.551988,54.8165477 131.583047,53.2146392 129.645165,50.0126784 C128.009844,47.3091098 125.608838,45.4491882 122.444929,44.4319856 C119.279165,43.4166392 115.79506,43.3154758 111.990759,44.1312797 C112.870603,45.5865477 113.311452,46.3141817 114.191295,47.7685216 C119.061988,46.8422732 122.515465,48.0627307 124.552655,51.428966 C126.420929,54.517698 127.355531,56.0611359 129.222877,59.1489399 C131.493021,62.8994105 135.164603,64.6145477 140.235766,64.2962078 C140.311871,64.4205739 140.349923,64.4846131 140.426027,64.6099072 C136.178093,66.2897765 135.186877,69.0044824 137.455165,72.7549529 C139.337361,75.8641033 140.277531,77.4177503 142.157871,80.5269007 C143.234472,82.3060771 143.404315,83.7270052 142.6674,84.7924693 C141.930485,85.8570052 140.391688,86.6598157 138.05008,87.2009007 C138.93642,88.6654497 139.380054,89.3995804 140.267322,90.8641294 C144.217335,89.9777895 146.829949,88.5596458 148.107021,86.6115542 C149.383165,84.6625346 149.208681,82.3450575 147.58357,79.6581948 C145.66425,76.4868614 144.70459,74.9016588 142.786197,71.7303255 C141.68825,69.915881 141.563884,68.4801033 142.409387,67.4220641 C143.256746,66.3630967 144.934759,65.5639987 147.442498,65.0266261 C146.549661,63.5509399 146.103243,62.8130967 145.210407,61.3374105 C142.473426,61.8849922 140.254328,61.8877765 138.556825,61.3448353" id="Fill-6" fill="#00B14D"></path>
                </g>
            </g>
        </g>
    </g>
</svg>